<?xml version="1.0" standalone="no"?>
<!DOCTYPE svg PUBLIC "-//W3C//DTD SVG 20010904//EN"
 "http://www.w3.org/TR/2001/REC-SVG-20010904/DTD/svg10.dtd">
<svg version="1.0" xmlns="http://www.w3.org/2000/svg"
 width="500.000000pt" height="500.000000pt" viewBox="0 0 500.000000 500.000000"
 preserveAspectRatio="xMidYMid meet">

<g transform="translate(0.000000,500.000000) scale(0.100000,-0.100000)"
fill="#000000" stroke="none">
<path d="M2425 4539 c-87 -21 -152 -91 -186 -199 -31 -100 -25 -288 27 -850
l17 -187 -110 -134 c-220 -267 -351 -453 -432 -614 -201 -399 -186 -761 43
-1066 141 -187 382 -318 619 -336 49 -4 81 -11 84 -18 7 -19 -15 -238 -33
-324 -23 -108 -51 -178 -90 -217 -31 -31 -40 -34 -90 -34 -50 0 -60 4 -89 33
-19 19 -37 46 -41 60 -18 72 31 149 101 163 35 6 49 4 106 -20 12 -5 19 1 28
25 18 53 14 88 -11 98 -97 36 -197 15 -269 -58 -152 -151 -58 -406 155 -419
157 -10 263 102 310 329 21 102 36 231 36 306 l0 63 83 0 c115 0 242 -22 462
-81 176 -47 196 -51 275 -47 135 8 223 64 271 173 19 43 22 64 19 150 -7 226
-7 229 19 267 14 19 47 50 75 69 62 41 104 78 118 104 35 63 26 149 -19 197
-14 15 -55 39 -92 54 -102 42 -102 44 -14 93 142 80 173 113 173 187 0 31 -8
44 -47 83 -27 26 -59 54 -73 63 l-25 16 21 28 c11 16 56 59 99 95 44 37 87 82
97 100 27 50 23 107 -11 160 -39 61 -76 93 -221 195 -170 118 -332 255 -368
309 -25 37 -31 60 -37 128 -22 276 -82 472 -198 651 -101 154 -248 277 -415
347 -122 50 -290 77 -367 58z m109 -129 c46 -22 78 -64 106 -137 69 -183 3
-440 -190 -737 l-58 -90 -6 35 c-10 59 -36 368 -45 539 -13 249 5 337 79 388
41 27 62 28 114 2z m272 -66 c136 -73 226 -156 316 -294 89 -138 137 -296 162
-537 16 -155 28 -187 92 -262 49 -57 185 -169 315 -262 153 -107 229 -170 246
-202 18 -35 15 -39 -99 -134 -57 -47 -84 -78 -104 -120 -26 -53 -27 -57 -13
-96 10 -28 31 -55 69 -86 30 -24 55 -51 55 -59 0 -8 -40 -36 -90 -63 -114 -63
-155 -104 -155 -159 0 -59 42 -102 138 -139 42 -16 81 -36 86 -44 19 -31 -3
-65 -74 -112 -125 -83 -177 -176 -166 -295 20 -197 19 -206 -3 -252 -25 -51
-68 -83 -133 -97 -56 -13 -84 -8 -339 56 l-187 47 59 35 c268 163 426 481 390
785 -21 183 -93 335 -215 460 -157 162 -365 246 -607 246 l-86 0 -6 43 c-3 23
-16 138 -28 255 l-22 213 34 47 c193 269 297 480 330 669 18 103 7 255 -23
331 -14 34 -22 62 -18 62 4 0 38 -16 76 -36z m-482 -1389 c9 -93 19 -184 22
-201 6 -30 3 -33 -53 -63 -130 -69 -244 -188 -304 -316 -30 -63 -56 -151 -48
-159 2 -3 28 -8 56 -12 l52 -6 11 43 c31 116 127 245 235 317 60 39 75 40 75
5 0 -16 18 -176 40 -358 48 -403 67 -593 76 -793 l7 -153 -64 7 c-227 24 -437
137 -556 297 -58 79 -116 201 -138 294 -26 106 -17 296 19 418 38 128 119 290
218 437 98 145 320 428 329 419 3 -3 13 -82 23 -176z m418 -334 c258 -66 452
-263 504 -511 19 -91 14 -247 -11 -330 -72 -237 -256 -420 -490 -489 -38 -11
-86 -22 -105 -23 l-35 -3 -2 95 c-5 181 -24 397 -73 817 -28 232 -50 431 -50
442 0 20 6 21 93 21 60 0 121 -7 169 -19z"/>
<path d="M1588 3483 c-202 -255 -288 -379 -388 -558 -111 -198 -185 -397 -227
-610 -26 -132 -25 -456 1 -580 24 -113 86 -295 133 -389 46 -93 126 -215 192
-294 l52 -62 43 37 43 37 -83 109 c-134 177 -223 376 -266 592 -22 115 -26
351 -8 475 56 370 234 720 590 1160 50 61 90 114 90 119 0 7 -74 71 -83 71 -2
0 -42 -48 -89 -107z"/>
<path d="M1853 3293 c-349 -438 -486 -689 -554 -1013 -41 -195 -28 -440 32
-625 35 -107 126 -277 195 -364 l66 -84 41 41 c37 37 39 42 26 60 -8 10 -36
48 -62 83 -116 153 -194 372 -204 574 -20 394 143 760 574 1285 l54 65 -38 32
c-21 18 -43 32 -49 33 -6 0 -42 -39 -81 -87z"/>
</g>
</svg>
